<?xml version="1.0" standalone="no"?>
<!DOCTYPE svg PUBLIC "-//W3C//DTD SVG 20010904//EN"
 "http://www.w3.org/TR/2001/REC-SVG-20010904/DTD/svg10.dtd">
<svg version="1.0" xmlns="http://www.w3.org/2000/svg"
 width="300.000000pt" height="292.000000pt" viewBox="0 0 300.000000 292.000000"
 preserveAspectRatio="xMidYMid meet">
<metadata>
Created by Ritik Singh, written by Ritik Singh
</metadata>
<g transform="translate(0.000000,292.000000) scale(0.100000,-0.100000)"
fill="#00FFFF" stroke="none">
<path d="M1510 2860 c0 -10 54 -20 104 -19 31 0 36 2 21 8 -28 11 -125 20
-125 11z"/>
<path d="M1180 2838 c-19 -4 -60 -12 -90 -19 -30 -6 -75 -18 -100 -27 l-45
-16 39 -17 39 -17 -32 -17 c-41 -21 -66 -14 -26 8 20 11 24 16 13 17 -10 0
-28 -10 -39 -21 -12 -12 -75 -49 -140 -81 -65 -33 -136 -76 -158 -95 -25 -21
-55 -36 -78 -39 -28 -4 -34 -3 -23 5 8 5 11 13 7 17 -4 5 -20 -5 -35 -20 -25
-26 -25 -28 -5 -22 43 13 31 -12 -42 -89 -41 -43 -75 -82 -75 -87 0 -15 -82
-98 -97 -98 -15 0 -73 -114 -73 -144 0 -18 3 -17 28 7 32 31 44 34 35 10 -5
-11 -3 -14 6 -9 7 5 10 17 8 27 -5 20 36 79 54 79 18 0 8 -28 -41 -115 -27
-49 -64 -124 -81 -168 -17 -43 -37 -76 -43 -74 -6 2 -12 27 -14 55 -3 43 -6
52 -22 52 -37 0 -69 -95 -70 -207 0 -72 3 -84 21 -97 36 -25 49 -64 49 -146 0
-63 -4 -81 -20 -100 -14 -16 -17 -27 -10 -35 5 -6 7 -14 4 -17 -3 -4 -1 -22 4
-41 5 -19 6 -40 2 -47 -12 -19 -19 0 -30 81 -8 54 -7 74 1 80 9 5 9 18 -1 53
-7 25 -10 52 -7 60 8 20 -3 28 -20 15 -18 -16 -17 -137 2 -286 11 -81 30 -159
59 -248 74 -219 122 -308 235 -433 12 -12 21 -27 21 -32 0 -5 12 -13 26 -16
14 -4 30 -17 35 -31 5 -13 17 -26 26 -30 10 -3 25 -12 33 -18 8 -7 27 -15 41
-18 14 -4 54 -31 88 -62 94 -83 272 -167 426 -199 223 -46 459 -57 658 -30 29
4 47 3 47 -4 0 -19 -221 -35 -402 -29 -148 5 -190 11 -293 37 -137 35 -191 37
-103 3 135 -52 417 -88 573 -73 183 18 362 49 420 73 120 49 140 59 148 73 4
8 17 14 27 14 10 0 21 4 25 10 3 5 43 35 88 66 45 32 116 82 157 113 56 42 88
58 130 66 55 11 55 12 67 58 6 26 20 59 31 75 18 25 55 118 67 166 2 11 9 24
15 30 5 5 10 22 10 36 0 14 20 86 45 160 54 160 76 326 57 412 -7 27 -12 74
-12 104 0 30 -7 90 -16 132 -9 42 -18 95 -19 117 -6 90 -52 254 -80 285 -8 9
-21 34 -28 56 -24 65 -131 251 -135 232 -4 -20 -22 -25 -22 -5 0 12 -248 246
-293 276 -14 9 -46 31 -71 49 -26 18 -52 32 -59 29 -7 -2 -1 -9 13 -17 40 -20
132 -91 126 -97 -3 -3 -36 9 -73 27 -125 59 -366 139 -468 155 -50 7 -79 16
-77 23 3 15 -14 16 -23 2 -9 -14 -62 -13 -71 2 -5 8 -2 9 9 5 10 -3 17 -2 17
3 0 14 -44 12 -58 -2 -9 -9 -21 -9 -50 0 -22 7 -52 12 -68 12 -22 0 -26 3 -14
10 8 5 30 10 48 10 21 0 31 4 27 11 -8 12 -198 10 -255 -3z m212 -63 c38 -14
82 -25 96 -24 108 6 464 -88 644 -170 37 -17 79 -31 92 -31 28 0 67 -32 227
-184 104 -98 109 -105 179 -241 61 -118 75 -157 95 -250 40 -194 46 -240 71
-520 9 -98 -7 -184 -70 -380 -73 -229 -97 -289 -165 -425 -4 -8 -28 -21 -52
-29 -24 -8 -119 -67 -210 -132 -293 -208 -442 -271 -535 -224 -22 10 -39 12
-69 5 -102 -24 -414 -8 -619 31 -127 24 -319 116 -415 197 -35 30 -78 60 -95
67 -46 20 -155 111 -189 158 -17 23 -44 58 -60 77 -39 45 -99 174 -148 320
-44 130 -48 180 -19 217 16 21 19 35 14 78 -5 40 -2 58 11 78 14 21 16 44 14
111 -4 76 -7 89 -37 130 -28 41 -32 55 -32 109 0 78 11 98 38 74 24 -22 45
-22 64 1 8 9 50 89 93 177 43 88 89 174 101 191 13 17 24 36 24 42 0 6 11 19
25 28 33 22 41 51 20 75 -15 16 -16 21 -4 36 43 55 88 97 120 114 20 10 50 30
68 44 37 31 278 155 302 155 25 0 69 39 69 61 0 11 6 21 13 23 6 2 35 10 62
19 81 25 195 21 277 -8z m-912 -463 c0 -14 -39 -46 -47 -39 -3 4 2 16 12 27
19 21 35 26 35 12z m-60 -69 c-1 -15 -39 -58 -45 -51 -8 8 24 58 36 58 5 0 9
-3 9 -7z"/>
<path d="M1150 2158 c-47 -25 -50 -46 -48 -295 4 -287 -2 -276 141 -281 117
-3 137 -8 137 -31 0 -38 36 -55 128 -58 102 -5 132 7 147 55 l9 32 102 0 c87
0 105 3 128 21 l26 20 0 197 c0 108 -5 213 -10 233 -12 43 -55 86 -101 100
-54 18 -628 23 -659 7z m667 -51 c62 -33 67 -51 71 -253 3 -101 2 -194 -2
-208 l-6 -26 -140 0 c-76 0 -141 -4 -144 -8 -3 -5 4 -22 14 -39 l19 -31 -47
-6 c-57 -7 -158 -3 -168 7 -4 4 3 18 16 32 l23 24 -27 11 c-15 5 -78 10 -141
10 -62 0 -120 3 -129 6 -14 5 -16 37 -16 248 0 134 3 246 7 250 5 4 150 6 323
4 278 -3 319 -5 347 -21z"/>
<path d="M1180 1948 c0 -173 7 -197 60 -215 44 -15 489 -17 542 -3 61 17 68
37 68 181 0 145 -8 164 -75 179 -22 5 -165 10 -317 10 l-278 0 0 -152z m587
101 c15 -5 31 -16 35 -22 4 -7 8 -60 8 -119 0 -118 -6 -133 -63 -143 -18 -4
-134 -5 -259 -3 -286 4 -268 -7 -268 163 0 67 3 125 7 128 11 12 509 8 540 -4z"/>
<path d="M1501 2005 c-15 -20 -25 -24 -44 -20 -32 8 -110 -29 -127 -60 -10
-19 -11 -31 -2 -50 12 -26 78 -65 112 -65 12 0 30 -4 40 -10 13 -7 24 -4 44
11 21 17 30 19 41 9 31 -26 119 12 146 61 16 30 -13 67 -75 94 -28 13 -58 30
-65 39 -20 23 -47 20 -70 -9z m28 -101 c-21 -70 -33 -93 -45 -81 -6 6 33 142
49 172 22 40 19 -13 -4 -91z m-65 41 c-3 -8 -21 -19 -40 -25 -43 -15 -43 -26
1 -44 34 -15 48 -36 23 -36 -19 0 -91 43 -95 57 -3 7 17 23 44 37 55 29 75 32
67 11z m171 -11 c30 -15 55 -30 55 -35 0 -9 -92 -59 -110 -59 -21 0 -9 17 25
33 19 9 35 21 35 26 0 5 -16 15 -35 21 -19 6 -35 18 -35 26 0 18 0 18 65 -12z"/>
<path d="M623 1379 c-17 -5 -42 -23 -53 -40 -19 -26 -22 -40 -18 -120 3 -88 4
-92 36 -120 37 -33 94 -39 141 -14 26 13 33 13 61 -1 21 -11 43 -14 68 -9 20
3 49 6 65 5 32 -1 147 -2 180 -1 12 1 46 -2 76 -5 34 -4 62 -2 76 6 17 9 28 9
43 1 29 -16 88 -14 123 4 16 9 35 13 41 9 7 -4 30 -9 52 -10 126 -10 153 -10
170 -1 13 6 32 5 58 -4 34 -11 43 -10 65 3 23 14 29 14 55 -1 28 -16 29 -15
59 17 l30 33 28 -30 c35 -38 41 -38 81 -5 l31 27 25 -24 c24 -22 34 -24 152
-26 193 -4 212 10 212 156 0 86 -2 92 -29 123 -30 33 -29 33 -171 30 -14 0
-117 0 -230 0 -113 1 -220 1 -237 0 -142 -1 -182 -1 -213 0 -19 0 -54 0 -77 0
-68 -2 -168 -3 -238 -2 -66 1 -145 1 -177 -1 -18 0 -54 2 -80 6 -32 5 -55 3
-75 -7 -24 -12 -34 -12 -58 -2 -40 17 -64 17 -99 -1 -27 -14 -34 -14 -68 0
-43 17 -58 17 -105 4z m113 -50 c10 -8 14 -27 12 -58 -3 -52 -21 -61 -41 -21
-8 17 -21 25 -37 25 -23 0 -25 -3 -25 -50 0 -44 3 -50 22 -53 14 -2 27 4 34
17 10 15 17 17 31 10 46 -25 -6 -89 -72 -89 -60 0 -71 21 -68 126 3 83 5 89
28 102 28 15 93 10 116 -9z m151 13 c32 -20 47 -170 20 -206 -17 -24 -86 -32
-111 -13 -16 12 -20 30 -24 99 -4 83 -4 85 23 106 28 22 70 28 92 14z m197
-11 c13 -11 16 -34 16 -107 0 -92 -1 -95 -26 -104 -35 -14 -108 -12 -122 2
-17 17 -16 200 1 217 15 16 109 10 131 -8z m171 -16 c0 -27 -4 -30 -38 -35
-46 -6 -49 -23 -6 -30 18 -3 34 -11 37 -17 4 -13 -3 -17 -50 -27 -42 -9 -34
-24 15 -28 39 -3 42 -5 42 -33 0 -30 -1 -30 -58 -33 -54 -3 -58 -1 -67 23 -6
15 -10 57 -10 95 0 38 4 80 10 95 9 24 13 26 67 23 57 -3 58 -3 58 -33z m163
19 c19 -13 23 -23 20 -62 -3 -52 -28 -66 -38 -22 -7 29 -41 38 -59 16 -17 -20
-10 -77 11 -90 13 -8 21 -6 36 7 28 25 52 22 52 -8 0 -57 -91 -87 -140 -47
-20 16 -23 28 -24 94 -1 52 3 80 14 93 30 36 91 45 128 19z m179 -10 c17 -23
17 -64 -1 -90 -10 -13 -11 -25 -5 -35 5 -8 9 -31 9 -51 0 -34 -3 -38 -24 -38
-20 0 -25 6 -28 32 -4 40 -25 48 -30 11 -2 -22 -8 -28 -28 -28 -25 0 -25 1
-28 92 -4 123 4 137 71 130 33 -3 55 -11 64 -23z m191 14 c15 -15 16 -68 1
-68 -11 0 -10 -22 7 -122 6 -36 5 -38 -18 -38 -14 0 -31 7 -38 15 -7 8 -23 15
-35 15 -13 0 -25 -7 -29 -15 -3 -8 -15 -15 -26 -15 -16 0 -20 6 -20 33 0 17 4
49 9 70 6 23 5 50 -1 71 -18 57 -8 66 70 66 39 0 73 -5 80 -12z m310 0 c22
-22 14 -46 -15 -50 -28 -3 -28 -4 -33 -88 -5 -78 -7 -85 -27 -88 -21 -3 -22 1
-25 79 -3 90 -14 107 -61 95 -38 -9 -34 -34 6 -38 43 -4 44 -32 0 -36 -30 -3
-32 -5 -35 -50 -2 -37 -7 -48 -22 -50 -28 -6 -36 15 -36 96 0 55 -4 74 -15 78
-18 7 -20 50 -2 57 27 12 253 7 265 -5z m160 -25 c3 -31 2 -32 -40 -35 -50 -4
-58 -22 -11 -26 36 -4 65 -29 42 -36 -8 -3 -25 -6 -38 -8 -44 -5 -37 -28 8
-28 40 0 41 -1 41 -35 l0 -35 -54 0 c-34 0 -58 5 -65 14 -14 16 -20 194 -7
214 5 9 26 12 64 10 56 -3 57 -4 60 -35z m175 6 c16 -20 18 -36 15 -102 -4
-94 -15 -107 -95 -107 -48 0 -54 3 -63 26 -13 33 -13 155 0 190 10 25 13 26
67 22 44 -4 61 -10 76 -29z"/>
<path d="M822 1233 c3 -33 6 -38 28 -38 22 0 25 4 25 35 0 31 -3 35 -28 38
-27 3 -28 2 -25 -35z"/>
<path d="M1004 1266 c-11 -28 0 -91 16 -91 22 0 27 90 5 99 -9 3 -18 0 -21 -8z"/>
<path d="M1520 1275 c0 -36 13 -47 24 -19 10 26 7 42 -9 48 -12 4 -15 -3 -15
-29z"/>
<path d="M1697 1264 c-13 -14 -7 -54 8 -54 16 0 18 14 6 43 -3 10 -10 15 -14
11z"/>
<path d="M2347 1273 c-11 -10 -8 -76 3 -93 9 -13 12 -12 25 4 18 23 18 36 5
70 -9 26 -21 32 -33 19z"/>
<path d="M900 1000 c-14 -27 21 -70 43 -52 8 7 26 10 39 7 31 -8 57 19 41 43
-15 25 -110 27 -123 2z"/>
<path d="M1291 1006 c-25 -30 13 -59 49 -36 10 6 20 4 31 -6 13 -12 22 -13 36
-5 11 5 25 6 33 1 8 -5 21 -3 33 5 15 11 24 11 38 2 15 -9 22 -8 34 4 13 13
13 18 2 33 -12 16 -16 17 -35 5 -17 -11 -26 -11 -41 -2 -14 9 -21 9 -30 0 -9
-9 -17 -8 -32 1 -18 11 -24 11 -39 -3 -15 -14 -18 -14 -30 0 -16 19 -34 19
-49 1z"/>
<path d="M2172 1008 c-18 -18 -15 -36 7 -48 15 -7 23 -6 35 6 9 8 16 19 16 23
0 11 -23 31 -35 31 -6 0 -16 -5 -23 -12z"/>
<path d="M1157 1003 c-11 -10 -8 -41 4 -49 16 -9 43 21 36 40 -7 16 -28 21
-40 9z"/>
<path d="M1824 995 c-4 -9 -2 -21 4 -27 16 -16 47 -5 47 17 0 26 -42 34 -51
10z"/>
<path d="M824 989 c-3 -6 1 -18 9 -27 13 -13 19 -13 32 -2 12 10 13 16 4 26
-14 17 -35 18 -45 3z"/>
<path d="M612 2598 c-35 -31 -38 -48 -4 -27 19 12 46 48 40 54 -2 2 -18 -10
-36 -27z"/>
<path d="M419 2418 c-58 -56 -132 -163 -126 -182 2 -6 11 4 21 22 10 20 21 30
29 26 7 -4 9 -4 5 1 -4 4 22 39 58 78 68 73 91 107 76 107 -5 0 -33 -23 -63
-52z"/>
<path d="M2921 1411 c-6 -11 -11 -27 -11 -35 0 -8 -5 -38 -11 -66 -11 -52 -28
-67 -30 -27 -2 36 -16 -30 -18 -82 -1 -35 -51 -205 -96 -326 -7 -16 -6 -18 6
-7 20 19 39 14 39 -10 l0 -23 25 25 c26 26 65 121 96 230 10 36 19 67 20 70 1
3 3 16 5 30 2 14 9 51 15 83 10 46 10 63 1 78 -7 10 -12 30 -12 43 0 33 -16
42 -29 17z"/>
</g>
</svg>
